<?xml version="1.0" standalone="no"?>
<!DOCTYPE svg PUBLIC "-//W3C//DTD SVG 20010904//EN"
 "http://www.w3.org/TR/2001/REC-SVG-20010904/DTD/svg10.dtd">
<svg version="1.0" xmlns="http://www.w3.org/2000/svg"
 width="256.000000pt" height="256.000000pt" viewBox="0 0 256.000000 256.000000"
 preserveAspectRatio="xMidYMid meet">
<metadata>
Created by potrace 1.11, written by Peter Selinger 2001-2013
</metadata>
<g transform="translate(0.000000,256.000000) scale(0.100000,-0.100000)"
fill="#000000" stroke="none">
<path d="M915 2466 c-112 -35 -204 -106 -246 -187 -70 -138 -62 -334 20 -497
121 -240 288 -336 452 -260 138 63 198 197 199 445 2 240 -79 410 -230 488
-43 22 -142 28 -195 11z"/>
<path d="M1700 2451 c-94 -31 -184 -105 -249 -205 -62 -95 -82 -163 -87 -289
-6 -190 25 -287 127 -388 139 -138 304 -92 455 128 99 144 136 267 137 453 0
67 -4 96 -22 135 -47 106 -138 166 -261 171 -41 2 -86 0 -100 -5z"/>
<path d="M212 1896 c-90 -29 -161 -104 -194 -203 -38 -118 -7 -304 78 -463
112 -208 315 -285 503 -192 68 33 127 93 153 152 70 160 -50 500 -225 639 -81
63 -228 95 -315 67z"/>
<path d="M2216 1833 c-132 -39 -256 -174 -326 -355 -54 -137 -52 -264 7 -380
53 -108 227 -162 342 -106 64 31 180 150 228 233 59 103 86 200 86 315 1 76
-3 104 -20 141 -57 125 -191 189 -317 152z"/>
<path d="M1138 1464 c-148 -31 -183 -63 -284 -252 -42 -81 -78 -113 -199 -176
-161 -84 -283 -225 -321 -372 -16 -60 -14 -216 3 -249 6 -11 19 -38 29 -60 33
-70 119 -146 224 -198 125 -62 183 -76 300 -72 77 2 119 10 220 42 145 45 194
47 317 9 150 -46 179 -51 278 -51 112 1 167 15 277 72 105 55 152 102 200 201
37 77 42 94 46 181 7 166 -41 267 -178 370 -19 14 -37 29 -40 32 -6 9 -60 40
-130 78 -59 32 -95 73 -195 226 -32 50 -68 99 -80 111 -98 92 -310 141 -467
108z"/>
</g>
</svg>
